<svg display="none" xmlns="http://www.w3.org/2000/svg">
  <symbol id="create-ic" class="icon" viewBox="0 0 32 32" >
    <path d="M 25 4.03125 C 24.234835 4.03125 23.483027 4.3294733 22.90625 4.90625 L 13 14.78125 L 12.78125 15 L 12.71875 15.3125 L 12.03125 18.8125 L 11.71875 20.28125 L 13.1875 19.96875 L 16.6875 19.28125 L 17 19.21875 L 17.21875 19 L 27.09375 9.09375 C 28.247303 7.9401966 28.247303 6.0598034 27.09375 4.90625 C 26.516973 4.3294733 25.765165 4.03125 25 4.03125 z M 25 5.96875 C 25.234835 5.96875 25.464277 6.0892767 25.6875 6.3125 C 26.133947 6.7589466 26.133947 7.2410534 25.6875 7.6875 L 16 17.375 L 14.28125 17.71875 L 14.625 16 L 24.3125 6.3125 C 24.535723 6.0892767 24.765165 5.96875 25 5.96875 z M 4 8 L 4 28 L 24 28 L 24 14.8125 L 22 16.8125 L 22 26 L 6 26 L 6 10 L 15.1875 10 L 17.1875 8 L 4 8 z"/>
  </symbol>

  <symbol id="close-ic" class="icon" viewBox="0 0 371.23 371.23" >
    <polygon points="371.23,21.213 350.018,0 185.615,164.402 21.213,0 0,21.213 164.402,185.615 0,350.018 21.213,371.23 
	  185.615,206.828 350.018,371.23 371.23,350.018 206.828,185.615 "/>
  </symbol>

  <symbol id="trash-ic" class="icon" viewBox="0 0 40 40" >
    <g><path d="M28,40H11.8c-3.3,0-5.9-2.7-5.9-5.9V16c0-0.6,0.4-1,1-1s1,0.4,1,1v18.1c0,2.2,1.8,3.9,3.9,3.9H28c2.2,0,3.9-1.8,3.9-3.9V16   c0-0.6,0.4-1,1-1s1,0.4,1,1v18.1C33.9,37.3,31.2,40,28,40z"/></g><g><path d="M33.3,4.9h-7.6C25.2,2.1,22.8,0,19.9,0s-5.3,2.1-5.8,4.9H6.5c-2.3,0-4.1,1.8-4.1,4.1S4.2,13,6.5,13h26.9   c2.3,0,4.1-1.8,4.1-4.1S35.6,4.9,33.3,4.9z M19.9,2c1.8,0,3.3,1.2,3.7,2.9h-7.5C16.6,3.2,18.1,2,19.9,2z M33.3,11H6.5   c-1.1,0-2.1-0.9-2.1-2.1c0-1.1,0.9-2.1,2.1-2.1h26.9c1.1,0,2.1,0.9,2.1,2.1C35.4,10.1,34.5,11,33.3,11z"/></g><g><path d="M12.9,35.1c-0.6,0-1-0.4-1-1V17.4c0-0.6,0.4-1,1-1s1,0.4,1,1v16.7C13.9,34.6,13.4,35.1,12.9,35.1z"/></g><g><path d="M26.9,35.1c-0.6,0-1-0.4-1-1V17.4c0-0.6,0.4-1,1-1s1,0.4,1,1v16.7C27.9,34.6,27.4,35.1,26.9,35.1z"/></g><g><path d="M19.9,35.1c-0.6,0-1-0.4-1-1V17.4c0-0.6,0.4-1,1-1s1,0.4,1,1v16.7C20.9,34.6,20.4,35.1,19.9,35.1z"/></g>
  </symbol>

  <symbol id="edit-ic" class="icon" viewBox="0 0 490.584 490.584" >
    <g>
      <g>
        <path d="M100.911,419.404l123.8-51c3.1-2.1,6.2-4.2,8.3-6.2l203.9-248.6c6.2-9.4,5.2-21.8-3.1-29.1l-96.8-80.1
          c-8-5.9-20.3-6.8-28.1,3.1l-204.9,248.5c-2.1,3.1-3.1,6.2-4.2,9.4l-26,132.1C72.511,420.104,90.611,424.004,100.911,419.404z
          M326.611,49.004l65.5,54.1l-177.7,217.1l-64.9-53.7L326.611,49.004z M133.411,306.904l44.4,36.8l-57.2,23.6L133.411,306.904z"/>
        <path d="M469.111,448.504h-349.5c0,0-72.5,3.4-75.2-15.2c0-1-1.8-5.6,7.6-17c7.3-9.4,6.2-21.8-2.1-29.1
          c-9.4-7.3-21.8-6.2-29.1,2.1c-19.8,23.9-25,44.7-15.6,63.5c25.5,47.5,111.3,36.3,115.4,37.3h348.5c11.4,0,20.8-9.4,20.8-20.8
          C490.011,457.804,480.611,448.504,469.111,448.504z"/>
      </g>
    </g>
  </symbol>

  <symbol id="save-ic" class="icon" viewBox="0 0 32 32" >
    <g>
      <g>
        <path d="M26,0h-2v13H8V0H0v32h32V6L26,0z M28,30H4V16h24V30z"/>
        <rect x="6" y="18"  width="20" height="2"/>
        <rect x="6" y="22"  width="20" height="2"/>
        <rect x="6" y="26"  width="20" height="2"/>
        <rect x="18" y="2"  width="4" height="9"/>
      </g>
    </g>
  </symbol>

  <symbol id="search-ic" class="icon" viewBox="0 0 487.95 487.95" >
    <path d="M481.8,453l-140-140.1c27.6-33.1,44.2-75.4,44.2-121.6C386,85.9,299.5,0.2,193.1,0.2S0,86,0,191.4s86.5,191.1,192.9,191.1
      c45.2,0,86.8-15.5,119.8-41.4l140.5,140.5c8.2,8.2,20.4,8.2,28.6,0C490,473.4,490,461.2,481.8,453z M41,191.4
      c0-82.8,68.2-150.1,151.9-150.1s151.9,67.3,151.9,150.1s-68.2,150.1-151.9,150.1S41,274.1,41,191.4z"/>
  </symbol>

  <symbol id="like-ic" class="icon" viewBox="0 0 490.1 490.1" >
    <path d="M201.9,21.018c-18.6,13.6-28,36.9-28,69v76.2H68.3c-37.6,0-68.3,30.6-68.3,68.3v2.1c0,0.6,0.1,1.3,0.2,1.9l28.1,176.5
		c5.2,42.4,34.8,66.8,81.1,66.8h209.2c37.6,0,68.3-30.6,68.3-68.3v-196.1c0-5.9,4.8-10.7,10.7-10.7h57.3c5.9,0,10.7,4.8,10.7,10.7
		v207.9c0,5.9-4.8,10.7-10.7,10.7h-33.1c-6.8,0-12.3,5.5-12.3,12.3s5.5,12.3,12.3,12.3h33.1c19.4,0,35.2-15.8,35.2-35.2v-208
		c0-19.4-15.8-35.2-35.2-35.2h-57.3c-13.8,0-25.8,8-31.6,19.6c-0.8-0.5-1.7-0.8-2.7-1.1c-3.3-0.9-81.4-23.8-81.4-91.2v-85.6
		c0-5.4-3.5-10.1-8.6-11.7C271.7,11.718,231.3-0.582,201.9,21.018z M356.8,224.218c1.9,0.5,3.8,0.6,5.6,0.2v189.1
		c0,24.1-19.6,43.8-43.8,43.8h-66.4H109.4c-34,0-53.1-15.2-56.9-45.7l-28-176v-1.1c0-24.1,19.6-43.8,43.8-43.8h117.9
		c6.8,0,12.3-5.5,12.3-12.3v-88.4c0-23.9,6-40.4,17.9-49.2c12.9-9.6,30.7-8.7,41.1-7v75.6
		C257.5,195.418,352.7,223.118,356.8,224.218z"/>
  </symbol>

  <symbol id="dislike-ic" class="icon" viewBox="0 0 478.174 478.174" >
    <path d="M457.525,153.074c1.9-5.1,3.7-12,4.2-20c0.7-14.1-2.8-33.9-22.7-51.9c1.3-9.2,1.3-23.8-6.8-38.3
		c-10.7-19.2-31.6-32.2-62.2-38.7c-20.5-4.4-47.4-5.3-80-2.8c-65.7-1.3-129.7,6.8-133.3,7.3l-23.5,2.8c-6.8-4.8-15.1-7.6-24-7.6h-61
		c-23,0-41.6,18.7-41.6,41.6v162.5c0,23,18.7,41.6,41.6,41.6h61c7.2,0,13.9-1.8,19.8-5c4.2,9.2,10.4,19.7,19.6,29.4
		c0.5,0.5,1,1,1.6,1.4c31.4,24.1,68.4,110.9,81.5,146.3c-1.3,11-2.6,34.8,8.4,47.7c4.9,5.7,11.7,8.8,19.3,8.8
		c7.7,0,34.3-1.8,50.9-24.7c15.7-21.8,16.6-54.4,2.6-97c-11.8-35.8-12.9-51.7-12.5-58.1c5.4,1.2,10.7,2.3,15.8,3.2h0.1
		c0.9,0.2,22.9,5.1,49.2,6.3c37.4,1.8,64.5-4.7,80.3-19.2c21.8-19.9,19.2-45.3,12.7-61.5c5.6-7.3,12.4-19.2,13-34.4
		C471.925,178.974,467.325,165.674,457.525,153.074z M109.225,222.674h-61c-8.1,0-14.6-6.6-14.6-14.6v-162.5
		c0-8.1,6.6-14.6,14.6-14.6h61c8.1,0,14.6,6.6,14.6,14.6v162.5C123.825,216.174,117.325,222.674,109.225,222.674z M430.925,232.374
		c0,0.1,3.5,5.6,4.7,13.1c1.5,9.3-1.1,17-8.1,23.4c-19.1,17.4-74.1,13.4-104.8,6.6c-0.4-0.1-0.8-0.2-1.3-0.3
		c-5.5-1-11.4-2.2-17.4-3.5c-6.4-2.3-15.2-2-21.8,3.9c-13.3,11.8-11.8,38.6,4.9,89.5c11,33.4,11.4,58.6,1.2,72.7
		c-8.6,11.9-22.8,13.4-28.2,13.5c-2.4-4-3.1-17.7-1.3-29c0.3-2.2,0.1-4.5-0.6-6.7c-1.9-5.1-45.8-125.3-90.7-160.9
		c-11.7-12.7-16.8-27.6-18.6-34.3c1.2-3.9,1.9-8.1,1.9-12.4v-162.4c0-3-0.3-6-0.9-8.8l10.1-1.2h0.1c0.6-0.1,65.7-8.5,130-7.1
		c0.4,0,0.9,0,1.4,0c30.3-2.4,54.8-1.7,72.9,2.2c22.4,4.8,37.2,13.2,44,25.1c7.1,12.3,3.2,25,2.9,26.2c-2.1,5.6-0.2,11.7,4.6,15.3
		c29.6,22.2,16,48.1,14.2,51.3c-3.3,5.2-2.5,11.8,1.8,16.3c8.6,9,12.8,18,12.5,26.8c-0.4,13.1-10.5,22.9-11.2,23.5
		C428.225,219.474,427.325,226.774,430.925,232.374z"/>
  </symbol>

  <symbol id="views-ic" class="icon" viewBox="0 0 59.2 59.2" >
    <g>
      <path d="M51.062,21.561c-11.889-11.889-31.232-11.889-43.121,0L0,29.501l8.138,8.138c5.944,5.944,13.752,8.917,21.561,8.917
        s15.616-2.972,21.561-8.917l7.941-7.941L51.062,21.561z M49.845,36.225c-11.109,11.108-29.184,11.108-40.293,0l-6.724-6.724
        l6.527-6.527c11.109-11.108,29.184-11.108,40.293,0l6.724,6.724L49.845,36.225z"/>
      <path d="M28.572,21.57c-3.86,0-7,3.14-7,7c0,0.552,0.448,1,1,1s1-0.448,1-1c0-2.757,2.243-5,5-5c0.552,0,1-0.448,1-1
        S29.125,21.57,28.572,21.57z"/>
      <path d="M29.572,16.57c-7.168,0-13,5.832-13,13s5.832,13,13,13s13-5.832,13-13S36.741,16.57,29.572,16.57z M29.572,40.57
        c-6.065,0-11-4.935-11-11s4.935-11,11-11s11,4.935,11,11S35.638,40.57,29.572,40.57z"/>
    </g>  
  </symbol>
    
</svg>